<?xml version="1.0" encoding="iso-8859-1"?>
<!-- Uploaded to: SVG Repo, www.svgrepo.com, Generator: SVG Repo Mixer Tools -->
<svg height="800px" width="800px" version="1.1" id="Layer_1" xmlns="http://www.w3.org/2000/svg" xmlns:xlink="http://www.w3.org/1999/xlink" 
	 viewBox="0 0 303.229 303.229" xml:space="preserve">
<g>
	<g>
		<circle style="fill:#F9BA48;" cx="151.615" cy="151.615" r="67.778"/>
		<path style="fill:#333333;" d="M300.528,148.463c-0.813-0.949-7.891-9.048-20.217-19.394c-0.455-2.629-0.934-5.262-1.549-7.833
			l-6.328,1.51c-25.751-19.801-67.841-43.751-120.819-43.751s-95.068,23.95-120.824,43.746l-6.328-1.51
			c-0.615,2.571-1.089,5.209-1.549,7.833C10.588,139.41,3.51,147.509,2.697,148.458L0,151.615l2.701,3.152
			c0.813,0.949,7.891,9.048,20.217,19.394c0.455,2.629,0.934,5.267,1.549,7.833l6.328-1.51
			c25.746,19.796,67.841,43.751,120.819,43.751s95.073-23.955,120.824-43.751l6.328,1.51c0.615-2.566,1.089-5.204,1.549-7.833
			c12.326-10.346,19.404-18.445,20.217-19.394l2.697-3.152L300.528,148.463z M151.615,214.551
			c-73.103,0-125.961-49.788-138.64-62.937c12.665-13.163,65.42-62.937,138.64-62.937c73.103,0,125.961,49.788,138.64,62.937
			C277.59,164.778,224.834,214.551,151.615,214.551z"/>
		<path style="fill:#333333;" d="M105.342,39.742l-3.704-8.947c-6.313,2.614-12.461,5.751-18.286,9.324l5.069,8.25
			C93.81,45.063,99.503,42.163,105.342,39.742z"/>
		<path style="fill:#333333;" d="M73.05,59.553l-6.294-7.364c-5.19,4.439-10.07,9.315-14.509,14.504l7.359,6.294
			C63.721,68.185,68.243,63.663,73.05,59.553z"/>
		<path style="fill:#333333;" d="M142.179,30.946l-0.741-9.654c-6.826,0.523-13.648,1.593-20.275,3.176l2.251,9.416
			C129.548,32.417,135.861,31.43,142.179,30.946z"/>
		<path style="fill:#333333;" d="M48.427,88.353l-8.25-5.069c-3.583,5.834-6.72,11.982-9.334,18.276l8.947,3.713
			C42.201,99.445,45.111,93.751,48.427,88.353z"/>
		<path style="fill:#333333;" d="M243.705,73.089l7.364-6.284c-4.439-5.2-9.315-10.084-14.5-14.524l-6.294,7.359
			C235.083,63.75,239.6,68.272,243.705,73.089z"/>
		<path style="fill:#333333;" d="M182.211,24.507c-6.628-1.593-13.444-2.668-20.27-3.2l-0.75,9.654
			c6.318,0.494,12.631,1.491,18.76,2.958L182.211,24.507z"/>
		<path style="fill:#333333;" d="M219.998,40.197c-5.819-3.583-11.968-6.729-18.266-9.344l-3.718,8.942
			c5.834,2.421,11.522,5.335,16.911,8.651L219.998,40.197z"/>
		<path style="fill:#333333;" d="M272.443,101.701c-2.609-6.308-5.742-12.461-9.315-18.29l-8.254,5.059
			c3.307,5.398,6.207,11.096,8.617,16.93L272.443,101.701z"/>
		<path style="fill:#333333;" d="M230.184,243.676l6.289,7.364c5.195-4.439,10.075-9.319,14.514-14.509l-7.364-6.289
			C239.513,235.044,234.991,239.566,230.184,243.676z"/>
		<path style="fill:#333333;" d="M197.888,263.487l3.708,8.947c6.303-2.614,12.452-5.751,18.276-9.319l-5.059-8.254
			C209.415,258.165,203.721,261.066,197.888,263.487z"/>
		<path style="fill:#333333;" d="M161.05,272.284l0.746,9.654c6.807-0.523,13.628-1.593,20.266-3.176l-2.242-9.416
			C173.671,270.807,167.354,271.795,161.05,272.284z"/>
		<path style="fill:#333333;" d="M254.807,214.871l8.25,5.069c3.573-5.819,6.71-11.968,9.329-18.266l-8.937-3.718
			C261.023,203.794,258.113,209.487,254.807,214.871z"/>
		<path style="fill:#333333;" d="M30.786,201.533c2.609,6.308,5.742,12.461,9.315,18.286l8.254-5.059
			c-3.307-5.393-6.207-11.087-8.617-16.925L30.786,201.533z"/>
		<path style="fill:#333333;" d="M59.524,230.14l-7.364,6.289c4.43,5.185,9.305,10.07,14.495,14.519l6.299-7.359
			C68.141,239.469,63.624,234.948,59.524,230.14z"/>
		<path style="fill:#333333;" d="M121.018,278.727c6.628,1.588,13.449,2.663,20.27,3.195l0.75-9.654
			c-6.313-0.494-12.626-1.491-18.765-2.958L121.018,278.727z"/>
		<path style="fill:#333333;" d="M83.231,263.032c5.81,3.573,11.953,6.72,18.266,9.344l3.723-8.937
			c-5.848-2.435-11.537-5.345-16.915-8.651L83.231,263.032z"/>
		<path style="fill:#333333;" d="M166.138,108.043h-9.683V93.519h-9.683v14.524h-9.683c-13.347,0-24.206,10.859-24.206,24.206
			c0,13.347,10.859,24.206,24.206,24.206h29.048c8.007,0,14.524,6.516,14.524,14.524s-6.516,14.524-14.524,14.524h-29.048
			c-8.007,0-14.524-6.516-14.524-14.524v-4.841h-9.683v4.841c0,13.347,10.859,24.206,24.206,24.206h9.683v14.524h9.683v-14.524
			h9.683c13.347,0,24.206-10.859,24.206-24.206s-10.859-24.206-24.206-24.206h-29.048c-8.007,0-14.524-6.516-14.524-14.524
			c0-8.007,6.516-14.524,14.524-14.524h29.048c8.007,0,14.524,6.516,14.524,14.524v4.841h9.683v-4.841
			C190.345,118.902,179.486,108.043,166.138,108.043z"/>
	</g>
</g>
</svg>